<?xml version="1.0" standalone="no"?>
<!DOCTYPE svg PUBLIC "-//W3C//DTD SVG 20010904//EN"
 "http://www.w3.org/TR/2001/REC-SVG-20010904/DTD/svg10.dtd">
<svg version="1.0" xmlns="http://www.w3.org/2000/svg"
 width="512.000000pt" height="512.000000pt" viewBox="0 0 512.000000 512.000000"
 preserveAspectRatio="xMidYMid meet">

<g transform="translate(0.000000,512.000000) scale(0.100000,-0.100000)"
fill="#000000" stroke="none">
<path d="M1425 4610 c-190 -12 -310 -41 -446 -112 -247 -127 -404 -358 -460
-678 -16 -91 -24 -2154 -10 -2381 16 -248 57 -390 155 -538 118 -177 302 -307
511 -360 159 -40 247 -43 1465 -39 1139 4 1167 5 1255 25 287 67 487 216 611
455 57 111 90 239 104 405 8 88 10 482 7 1263 -4 1235 -2 1190 -61 1368 -41
122 -107 225 -210 328 -178 178 -346 244 -670 264 -174 11 -2072 11 -2251 0z
m964 -1907 c182 -516 331 -944 331 -950 0 -19 -393 -19 -408 0 -5 6 -40 102
-78 212 -37 110 -72 206 -77 213 -7 9 -89 12 -347 12 l-338 0 -16 -42 c-8 -24
-41 -124 -73 -223 l-58 -180 -190 0 c-184 0 -190 1 -187 20 2 11 136 400 297
865 283 818 315 917 315 980 l0 30 248 0 249 0 332 -937z m1350 492 c288 -68
458 -341 436 -697 -5 -78 -11 -111 -23 -120 -12 -10 -115 -14 -449 -17 l-435
-3 7 -37 c12 -63 55 -139 102 -180 72 -64 135 -83 290 -89 140 -5 230 6 322
39 31 10 59 19 63 19 4 0 8 -67 8 -149 0 -175 5 -166 -121 -206 -158 -50 -413
-57 -570 -16 -123 32 -213 83 -300 170 -128 128 -187 283 -196 516 -4 110 -2
144 16 218 67 282 247 485 483 547 92 24 275 26 367 5z"/>
<path d="M1770 3188 c-18 -68 -69 -235 -112 -373 -43 -137 -78 -253 -78 -257
0 -4 104 -8 230 -8 177 0 230 3 230 13 1 19 -224 747 -231 747 -3 0 -20 -55
-39 -122z"/>
<path d="M3422 2875 c-63 -32 -105 -81 -132 -153 -33 -89 -53 -82 244 -82 292
0 280 -3 269 66 -9 53 -61 124 -117 159 -42 26 -61 30 -130 33 -71 3 -87 0
-134 -23z"/>
</g>
</svg>
