<?xml version="1.0" standalone="no"?>
<!DOCTYPE svg PUBLIC "-//W3C//DTD SVG 20010904//EN"
 "http://www.w3.org/TR/2001/REC-SVG-20010904/DTD/svg10.dtd">
<svg version="1.0" xmlns="http://www.w3.org/2000/svg"
 width="512.000000pt" height="512.000000pt" viewBox="0 0 512.000000 512.000000"
 preserveAspectRatio="xMidYMid meet">

<g transform="translate(0.000000,512.000000) scale(0.100000,-0.100000)"
fill="#000000" stroke="none">
<path d="M1525 4430 c-566 -203 -1034 -371 -1039 -373 -10 -3 301 -2747 313
-2758 3 -4 401 -225 885 -493 l879 -486 880 487 c483 268 881 492 883 498 3 6
75 626 162 1378 107 926 154 1370 147 1376 -11 8 -2067 742 -2075 740 -3 0
-468 -166 -1035 -369z m1680 -1572 c352 -792 643 -1449 647 -1459 7 -18 -3
-19 -236 -19 l-244 0 -129 323 -129 322 -555 3 -555 2 -129 -322 -130 -323
-244 -3 c-229 -2 -243 -1 -237 15 18 51 1292 2902 1296 2902 3 0 293 -648 645
-1441z"/>
<path d="M2369 2893 l-186 -448 189 -3 c103 -1 273 -1 377 0 l188 3 -186 448
c-102 246 -188 447 -191 447 -3 0 -89 -201 -191 -447z"/>
</g>
</svg>
