<?xml version="1.0" standalone="no"?>
<!DOCTYPE svg PUBLIC "-//W3C//DTD SVG 20010904//EN"
 "http://www.w3.org/TR/2001/REC-SVG-20010904/DTD/svg10.dtd">
<svg version="1.0" xmlns="http://www.w3.org/2000/svg"
 width="512.000000pt" height="512.000000pt" viewBox="0 0 512.000000 512.000000"
 preserveAspectRatio="xMidYMid meet">

<g transform="translate(0.000000,512.000000) scale(0.100000,-0.100000)"
fill="#000000" stroke="none">
<path d="M1275 4650 c-442 -37 -803 -380 -864 -824 -15 -108 -15 -2424 0
-2532 35 -253 169 -482 370 -634 147 -110 312 -173 501 -190 134 -12 2422 -12
2556 0 191 17 353 79 501 190 201 152 335 381 370 634 15 108 15 2424 0 2532
-35 253 -169 482 -370 634 -152 114 -313 174 -512 190 -131 11 -2419 11 -2552
0z m335 -1180 c121 -16 228 -48 330 -97 179 -88 317 -258 372 -460 31 -113 31
-372 0 -488 -48 -176 -157 -341 -291 -439 -74 -55 -197 -112 -302 -142 -92
-27 -100 -27 -441 -31 l-347 -5 -6 24 c-3 13 -4 385 -3 828 l3 805 65 6 c111
10 541 9 620 -1z m1257 -455 c33 -128 125 -556 149 -697 15 -87 29 -156 32
-154 2 3 21 87 43 188 22 101 69 303 105 451 l66 267 186 -2 186 -3 33 -140
c36 -150 137 -648 149 -729 7 -53 17 -47 28 19 32 194 128 637 177 818 l10 37
164 0 c91 0 165 -3 165 -7 0 -19 -363 -1229 -372 -1240 -12 -14 -334 -19 -354
-5 -15 9 -133 512 -195 832 -15 76 -6 102 -84 -225 -61 -254 -141 -558 -155
-592 -9 -23 -13 -23 -184 -23 -127 0 -176 3 -184 13 -8 10 -342 1222 -342
1242 0 3 82 4 182 3 l182 -3 13 -50z"/>
<path d="M1280 2645 l0 -525 26 -6 c43 -11 244 3 304 21 225 68 350 236 366
490 11 170 -41 322 -141 414 -106 96 -218 131 -422 131 l-133 0 0 -525z"/>
</g>
</svg>
