<?xml version="1.0" standalone="no"?>
<!DOCTYPE svg PUBLIC "-//W3C//DTD SVG 20010904//EN"
 "http://www.w3.org/TR/2001/REC-SVG-20010904/DTD/svg10.dtd">
<svg version="1.0" xmlns="http://www.w3.org/2000/svg"
 width="512.000000pt" height="512.000000pt" viewBox="0 0 512.000000 512.000000"
 preserveAspectRatio="xMidYMid meet">

<g transform="translate(0.000000,512.000000) scale(0.100000,-0.100000)"
fill="#000000" stroke="none">
<path d="M2500 4791 c-72 -15 -110 -46 -325 -261 l-220 -220 255 -255 c230
-230 257 -254 280 -247 42 11 152 5 198 -12 153 -55 253 -225 224 -379 l-12
-62 241 -241 241 -241 91 4 c128 7 189 -16 274 -102 53 -54 65 -73 84 -135 51
-168 -22 -335 -179 -412 -59 -29 -76 -33 -152 -33 -74 0 -93 4 -144 29 -77 38
-131 93 -168 172 -25 53 -30 77 -30 137 0 40 5 85 12 101 11 30 10 31 -214
255 l-226 226 0 -602 0 -601 35 -22 c126 -78 183 -263 126 -412 -29 -75 -99
-149 -176 -185 -52 -24 -72 -28 -150 -28 -74 0 -99 5 -137 24 -75 36 -134 95
-170 168 -28 58 -32 75 -32 147 0 66 5 92 26 137 31 69 84 129 144 164 l44 26
0 607 -1 607 -59 37 c-71 44 -122 116 -145 203 -18 73 -19 96 -2 162 l14 51
-251 251 -251 251 -687 -688 c-481 -482 -693 -700 -709 -732 -32 -64 -32 -166
0 -235 19 -41 214 -241 1035 -1061 832 -832 1020 -1015 1061 -1034 73 -33 172
-32 240 3 38 19 291 267 1061 1039 1117 1119 1050 1043 1048 1174 -1 118 45
68 -1058 1170 -799 799 -1021 1015 -1057 1032 -54 24 -129 34 -179 23z"/>
</g>
</svg>
