<?xml version="1.0" standalone="no"?>
<!DOCTYPE svg PUBLIC "-//W3C//DTD SVG 20010904//EN"
 "http://www.w3.org/TR/2001/REC-SVG-20010904/DTD/svg10.dtd">
<svg version="1.0" xmlns="http://www.w3.org/2000/svg"
 width="512.000000pt" height="512.000000pt" viewBox="0 0 512.000000 512.000000"
 preserveAspectRatio="xMidYMid meet">

<g transform="translate(0.000000,512.000000) scale(0.100000,-0.100000)"
fill="#000000" stroke="none">
<path d="M1106 4598 c-20 -19 -72 -167 -270 -781 -135 -416 -246 -762 -246
-767 0 -6 203 -10 571 -10 466 0 570 2 566 13 -3 7 -114 348 -247 758 -133
409 -247 753 -253 764 -26 49 -80 59 -121 23z"/>
<path d="M3922 4613 c-7 -3 -19 -17 -26 -31 -8 -15 -123 -362 -256 -771 -133
-410 -244 -751 -247 -758 -4 -11 100 -13 566 -13 365 0 571 4 571 10 0 5 -111
351 -246 767 -261 807 -260 804 -322 802 -15 0 -33 -3 -40 -6z"/>
<path d="M1743 3018 c2 -7 186 -572 408 -1255 222 -684 406 -1243 409 -1243 3
0 187 559 409 1243 222 683 406 1248 408 1255 4 9 -164 12 -817 12 -653 0
-821 -3 -817 -12z"/>
</g>
</svg>
