<?xml version="1.0" standalone="no"?>
<!DOCTYPE svg PUBLIC "-//W3C//DTD SVG 20010904//EN"
 "http://www.w3.org/TR/2001/REC-SVG-20010904/DTD/svg10.dtd">
<svg version="1.0" xmlns="http://www.w3.org/2000/svg"
 width="512.000000pt" height="512.000000pt" viewBox="0 0 512.000000 512.000000"
 preserveAspectRatio="xMidYMid meet">

<g transform="translate(0.000000,512.000000) scale(0.100000,-0.100000)"
fill="#000000" stroke="none">
<path d="M1269 4650 c-280 -25 -543 -180 -702 -414 -57 -85 -113 -210 -139
-312 l-23 -89 0 -1275 0 -1275 23 -89 c55 -217 179 -404 353 -536 150 -113
309 -173 504 -190 146 -13 2404 -13 2550 0 197 17 353 76 504 190 173 131 299
322 353 536 l23 89 0 1275 0 1275 -23 89 c-55 217 -182 409 -356 538 -151 113
-306 171 -501 188 -130 12 -2436 11 -2566 0z m2166 -1069 c75 -34 105 -85 105
-177 0 -64 -26 -123 -67 -152 -66 -47 -173 -51 -236 -8 -100 68 -104 247 -7
316 60 43 140 51 205 21z m-1015 -115 c0 -2 131 -372 290 -822 160 -449 290
-819 290 -821 0 -2 -82 -2 -182 -1 l-183 3 -65 192 -65 193 -297 0 -297 0 -63
-192 -64 -193 -167 -3 c-92 -1 -167 0 -167 2 0 3 119 349 265 770 146 421 265
780 265 798 0 18 3 43 6 56 6 22 7 22 220 22 118 0 214 -2 214 -4z m1100
-1021 l0 -625 -172 2 -173 3 -3 610 c-1 336 0 616 3 623 3 9 48 12 175 12
l170 0 0 -625z"/>
<path d="M2200 3177 c0 -16 -174 -583 -197 -644 -4 -10 40 -13 202 -13 192 0
206 1 201 18 -3 9 -39 125 -80 257 -41 132 -84 273 -96 313 -11 39 -23 72 -25
72 -3 0 -5 -2 -5 -3z"/>
</g>
</svg>
