<?xml version="1.0" standalone="no"?>
<!DOCTYPE svg PUBLIC "-//W3C//DTD SVG 20010904//EN"
 "http://www.w3.org/TR/2001/REC-SVG-20010904/DTD/svg10.dtd">
<svg version="1.0" xmlns="http://www.w3.org/2000/svg"
 width="512.000000pt" height="512.000000pt" viewBox="0 0 512.000000 512.000000"
 preserveAspectRatio="xMidYMid meet">

<g transform="translate(0.000000,512.000000) scale(0.100000,-0.100000)"
fill="#000000" stroke="none">
<path d="M3640 2763 c-204 -31 -349 -115 -442 -257 -134 -206 -106 -516 63
-701 77 -84 200 -159 410 -251 184 -81 277 -132 311 -170 46 -52 60 -137 33
-201 -21 -50 -41 -71 -100 -101 -72 -37 -215 -43 -313 -13 -84 25 -179 92
-225 157 -18 26 -36 52 -42 60 -8 11 -44 -6 -175 -83 -91 -53 -167 -97 -169
-99 -11 -9 73 -127 139 -194 115 -117 255 -192 420 -226 66 -13 115 -15 224
-11 244 9 396 65 521 191 111 112 155 225 155 396 0 174 -43 290 -149 402 -98
104 -211 173 -461 280 -206 88 -264 128 -295 200 -28 69 -9 165 41 210 102 90
301 47 386 -84 29 -45 33 -47 52 -35 12 8 80 51 151 97 72 45 136 88 143 94
10 10 2 27 -37 83 -119 169 -312 265 -531 261 -47 0 -96 -2 -110 -5z"/>
<path d="M2338 1973 c-3 -713 -4 -771 -21 -808 -36 -81 -94 -114 -195 -115
-105 0 -169 40 -240 150 -19 30 -36 57 -38 59 -5 5 -344 -201 -344 -209 0 -13
79 -129 116 -170 49 -54 146 -123 217 -155 130 -57 348 -71 502 -30 157 41
281 134 348 262 74 142 71 97 74 986 l4 797 -210 0 -210 0 -3 -767z"/>
</g>
</svg>
