<?xml version="1.0" standalone="no"?>
<!DOCTYPE svg PUBLIC "-//W3C//DTD SVG 20010904//EN"
 "http://www.w3.org/TR/2001/REC-SVG-20010904/DTD/svg10.dtd">
<svg version="1.0" xmlns="http://www.w3.org/2000/svg"
 width="512.000000pt" height="512.000000pt" viewBox="0 0 512.000000 512.000000"
 preserveAspectRatio="xMidYMid meet">

<g transform="translate(0.000000,512.000000) scale(0.100000,-0.100000)"
fill="#000000" stroke="none">
<path d="M3662 5048 c-7 -7 -12 -36 -12 -65 l0 -53 315 0 315 0 0 49 c0 83 10
81 -319 81 -210 0 -290 -3 -299 -12z"/>
<path d="M3650 4710 l0 -120 315 0 315 0 0 120 0 120 -315 0 -315 0 0 -120z"/>
<path d="M813 4689 c-71 -27 -155 -106 -190 -177 l-28 -57 -3 -1257 -2 -1258
65 0 65 0 2 1218 c3 1357 -3 1247 74 1332 21 23 56 51 78 63 l41 22 1302 3
1303 2 0 65 0 65 -1327 -1 c-1307 0 -1329 0 -1380 -20z"/>
<path d="M3650 4220 l0 -270 -149 0 c-142 0 -151 -1 -165 -22 -10 -14 -12 -26
-6 -37 5 -9 143 -171 307 -361 232 -269 304 -346 324 -348 23 -3 62 38 333
352 182 212 306 363 306 375 0 34 -32 41 -179 41 l-141 0 0 270 0 270 -315 0
-315 0 0 -270z"/>
<path d="M1120 3705 l0 -95 1136 0 c1095 0 1135 1 1122 18 -7 10 -42 53 -78
95 l-65 76 -1057 1 -1058 0 0 -95z"/>
<path d="M1127 3483 c-4 -3 -7 -48 -7 -100 l0 -93 1188 2 1187 3 0 95 0 95
-1181 3 c-649 1 -1184 -1 -1187 -5z"/>
<path d="M1120 3075 l0 -95 1190 0 1190 0 0 95 0 95 -1190 0 -1190 0 0 -95z"/>
<path d="M3894 3051 c-2 -2 -4 -600 -4 -1328 0 -1453 4 -1352 -60 -1433 -18
-22 -55 -51 -88 -67 l-57 -28 -1354 -3 c-1497 -3 -1415 -6 -1503 61 -26 20
-54 55 -73 91 -26 52 -30 71 -33 162 l-4 104 -65 0 -65 0 4 -142 c3 -129 6
-148 29 -199 36 -76 86 -129 161 -170 l63 -34 1460 0 1460 0 57 27 c73 34 142
103 176 176 l27 57 3 1365 2 1365 -66 0 c-36 0 -68 -2 -70 -4z"/>
<path d="M1120 2755 l0 -95 1190 0 1190 0 0 95 0 95 -1190 0 -1190 0 0 -95z"/>
<path d="M1122 2443 l3 -98 928 -3 927 -2 0 100 0 100 -930 0 -931 0 3 -97z"/>
<path d="M520 1275 l0 -575 1358 0 c1284 1 1356 2 1337 18 -58 48 -635 555
-635 557 0 2 577 509 635 557 19 16 -53 17 -1337 18 l-1358 0 0 -575z m591
315 c57 -16 102 -51 127 -100 33 -64 27 -156 -15 -208 -51 -64 -100 -82 -225
-82 l-108 0 0 -125 0 -125 -55 0 -55 0 0 325 0 325 148 0 c81 0 163 -5 183
-10z m626 -18 c57 -30 109 -85 129 -137 22 -60 17 -295 -8 -341 -24 -44 -73
-91 -122 -117 -36 -19 -60 -22 -193 -25 l-153 -4 0 327 0 327 153 -4 c134 -3
157 -6 194 -26z m713 -17 l0 -45 -155 0 -155 0 0 -100 0 -100 130 0 130 0 0
-40 0 -40 -130 0 -130 0 0 -140 0 -140 -55 0 -55 0 0 325 0 325 210 0 210 0 0
-45z"/>
<path d="M890 1395 l0 -115 73 0 c92 0 141 14 167 47 39 50 19 146 -35 171
-14 7 -66 12 -115 12 l-90 0 0 -115z"/>
<path d="M1500 1274 l0 -236 88 4 c99 3 125 17 164 83 20 35 23 53 23 150 0
102 -2 114 -27 156 -36 61 -75 79 -172 79 l-76 0 0 -236z"/>
</g>
</svg>
