<?xml version="1.0" standalone="no"?>
<!DOCTYPE svg PUBLIC "-//W3C//DTD SVG 20010904//EN"
 "http://www.w3.org/TR/2001/REC-SVG-20010904/DTD/svg10.dtd">
<svg version="1.0" xmlns="http://www.w3.org/2000/svg"
 width="512.000000pt" height="512.000000pt" viewBox="0 0 512.000000 512.000000"
 preserveAspectRatio="xMidYMid meet">

<g transform="translate(0.000000,512.000000) scale(0.100000,-0.100000)"
fill="#000000" stroke="none">
<path d="M1269 4650 c-280 -25 -543 -180 -702 -414 -57 -85 -113 -210 -139
-312 l-23 -89 0 -1275 0 -1275 23 -89 c55 -217 179 -404 353 -536 150 -113
309 -173 504 -190 146 -13 2404 -13 2550 0 197 17 353 76 504 190 173 131 299
322 353 536 l23 89 0 1275 0 1275 -23 89 c-71 279 -261 513 -516 636 -108 52
-208 78 -341 90 -130 12 -2436 11 -2566 0z m952 -1194 c295 -68 460 -263 459
-545 -1 -160 -49 -282 -154 -387 -123 -123 -251 -169 -523 -186 l-173 -12 0
-252 c0 -220 -2 -253 -16 -258 -20 -8 -298 -8 -318 0 -14 6 -16 88 -16 830 l0
823 118 4 c234 8 554 -1 623 -17z m1359 -382 c112 -26 110 -23 110 -179 0 -78
-4 -136 -10 -140 -6 -3 -43 5 -83 19 -194 67 -394 58 -413 -18 -16 -66 23 -99
194 -167 263 -103 365 -203 379 -368 12 -149 -55 -281 -182 -355 -151 -88
-459 -100 -659 -25 l-56 20 0 155 c0 85 3 154 7 154 3 0 34 -13 68 -29 82 -39
162 -59 266 -67 132 -10 219 24 219 85 -1 52 -38 79 -199 145 -274 114 -371
218 -371 401 0 199 139 343 372 385 71 12 277 3 358 -16z"/>
<path d="M1878 3173 l-48 -4 0 -266 0 -266 138 6 c163 6 222 22 284 77 57 50
80 104 80 191 0 200 -149 286 -454 262z"/>
</g>
</svg>
