<?xml version="1.0" standalone="no"?>
<!DOCTYPE svg PUBLIC "-//W3C//DTD SVG 20010904//EN"
 "http://www.w3.org/TR/2001/REC-SVG-20010904/DTD/svg10.dtd">
<svg version="1.0" xmlns="http://www.w3.org/2000/svg"
 width="512.000000pt" height="512.000000pt" viewBox="0 0 512.000000 512.000000"
 preserveAspectRatio="xMidYMid meet">

<g transform="translate(0.000000,512.000000) scale(0.100000,-0.100000)"
fill="#000000" stroke="none">
<path d="M2843 3704 c3 -10 8 -28 11 -40 6 -20 5 -21 -271 -21 -373 0 -633
-29 -943 -103 -494 -119 -878 -328 -1090 -594 l-45 -56 -15 46 -16 47 -32 -49
c-79 -124 -116 -243 -116 -374 0 -238 128 -459 379 -655 113 -88 191 -135 356
-214 677 -325 1642 -399 2474 -190 573 144 1023 429 1185 749 182 361 41 735
-389 1029 -338 231 -883 402 -1395 437 -94 7 -98 6 -93 -12z m-254 -287 c8
-10 4 -47 -14 -142 -14 -71 -25 -135 -25 -142 0 -10 34 -13 148 -13 163 0 222
-11 304 -57 63 -36 107 -106 115 -185 7 -72 -110 -677 -135 -695 -11 -9 -58
-13 -148 -13 -111 0 -135 3 -153 17 l-21 18 55 280 c30 154 55 294 55 313 0
44 -24 52 -165 52 l-113 0 -6 -37 c-50 -279 -122 -618 -133 -629 -11 -11 -45
-14 -141 -14 -138 0 -168 5 -176 26 -3 8 3 57 14 110 11 53 20 101 20 106 0 5
-18 -12 -39 -39 -42 -54 -110 -107 -180 -142 -67 -34 -161 -50 -337 -57 l-162
-7 -27 -141 c-16 -78 -32 -147 -38 -153 -7 -9 -51 -13 -158 -13 -134 0 -149 2
-158 18 -7 14 21 179 106 618 64 329 121 605 126 612 8 11 77 13 341 10 l331
-3 67 -32 c112 -53 160 -100 198 -195 l15 -37 48 252 c27 139 53 269 58 290
l10 37 153 0 c115 0 156 -3 165 -13z m1363 -334 c97 -46 144 -87 179 -158 45
-92 55 -173 35 -274 -22 -110 -48 -173 -103 -249 -76 -107 -187 -181 -312
-208 -36 -8 -139 -17 -227 -21 l-162 -6 -27 -141 c-16 -78 -32 -147 -38 -153
-15 -20 -300 -18 -317 1 -9 12 13 140 105 618 65 332 122 609 128 616 8 11 78
13 341 10 l331 -3 67 -32z"/>
<path d="M2291 3338 c-6 -29 -56 -285 -111 -568 -55 -283 -102 -525 -105 -537
-5 -23 -5 -23 125 -23 71 0 130 3 130 8 0 8 116 613 125 650 5 21 9 22 136 22
175 0 219 -20 219 -97 0 -15 -24 -151 -53 -301 -30 -149 -51 -274 -49 -277 3
-3 61 -5 128 -5 120 0 124 1 129 23 27 116 108 555 112 602 4 51 0 68 -24 115
-25 49 -35 59 -98 90 l-70 35 -192 3 c-172 3 -193 6 -193 20 1 10 14 79 29
155 l28 137 -128 0 -128 0 -10 -52z"/>
<path d="M1230 3075 c0 -10 -220 -1138 -226 -1157 -5 -17 6 -18 124 -18 126 0
130 1 135 23 3 12 15 74 27 137 11 63 23 122 26 131 4 14 31 17 182 22 267 8
372 45 485 167 89 98 156 282 142 393 -16 131 -76 215 -191 269 l-69 33 -317
3 c-175 2 -318 0 -318 -3z m548 -207 c55 -26 76 -66 76 -143 0 -134 -58 -239
-159 -290 -56 -28 -68 -30 -197 -33 -105 -3 -138 -1 -138 9 0 6 20 115 45 241
25 126 45 231 45 233 0 6 179 12 235 8 28 -2 69 -13 93 -25z"/>
<path d="M1447 2658 c-20 -106 -37 -199 -37 -205 0 -19 163 -17 231 3 119 35
206 201 167 319 -20 62 -56 75 -204 75 l-120 0 -37 -192z"/>
<path d="M3236 3063 c-2 -10 -53 -265 -111 -568 -58 -302 -109 -560 -112 -572
-5 -23 -5 -23 125 -23 l129 0 29 153 29 152 175 6 c271 10 360 39 476 155 97
97 156 238 155 372 -1 156 -57 244 -199 310 l-57 27 -317 3 c-298 3 -317 2
-322 -15z m549 -195 c76 -37 98 -128 62 -249 -27 -90 -72 -149 -142 -184 -56
-28 -68 -30 -201 -33 l-141 -4 43 223 c24 123 46 234 49 246 5 21 12 23 98 26
129 5 181 0 232 -25z"/>
<path d="M3454 2654 l-40 -209 89 -3 c192 -6 277 55 313 225 11 49 11 70 1
105 -18 61 -51 75 -202 84 l-121 7 -40 -209z"/>
</g>
</svg>
