<?xml version="1.0" standalone="no"?>
<!DOCTYPE svg PUBLIC "-//W3C//DTD SVG 20010904//EN"
 "http://www.w3.org/TR/2001/REC-SVG-20010904/DTD/svg10.dtd">
<svg version="1.0" xmlns="http://www.w3.org/2000/svg"
 width="512.000000pt" height="512.000000pt" viewBox="0 0 512.000000 512.000000"
 preserveAspectRatio="xMidYMid meet">

<g transform="translate(0.000000,512.000000) scale(0.100000,-0.100000)"
fill="#000000" stroke="none">
<path d="M1269 4650 c-220 -20 -424 -116 -582 -272 -126 -125 -215 -282 -259
-454 l-23 -89 0 -1275 0 -1275 23 -89 c55 -217 179 -404 353 -536 150 -113
309 -173 504 -190 146 -13 2404 -13 2550 0 196 17 353 76 504 190 174 132 298
319 353 536 l23 89 0 1275 0 1275 -23 89 c-55 217 -182 409 -356 538 -151 113
-306 171 -501 188 -130 12 -2436 11 -2566 0z m1056 -1199 c281 -75 435 -264
435 -538 0 -301 -185 -504 -515 -563 -33 -6 -122 -13 -197 -17 l-138 -6 -2
-256 -3 -256 -170 0 -170 0 -3 827 -2 827 87 4 c49 2 203 3 343 2 224 -2 265
-5 335 -24z m1405 -525 l0 -173 -92 -5 c-104 -6 -179 -25 -253 -66 l-50 -27
-5 -412 c-4 -268 -9 -416 -16 -423 -7 -7 -68 -10 -170 -8 l-159 3 -6 600 c-3
330 -9 612 -14 628 l-7 27 156 0 157 0 14 -32 c7 -18 16 -54 20 -80 l7 -48 57
52 c85 78 216 132 334 137 l27 1 0 -174z"/>
<path d="M1910 2904 l0 -267 138 6 c159 6 222 23 283 75 58 50 79 100 79 192
0 119 -41 184 -145 232 -44 20 -69 23 -202 26 l-153 4 0 -268z"/>
</g>
</svg>
