<?xml version="1.0" standalone="no"?>
<!DOCTYPE svg PUBLIC "-//W3C//DTD SVG 20010904//EN"
 "http://www.w3.org/TR/2001/REC-SVG-20010904/DTD/svg10.dtd">
<svg version="1.0" xmlns="http://www.w3.org/2000/svg"
 width="512.000000pt" height="512.000000pt" viewBox="0 0 512.000000 512.000000"
 preserveAspectRatio="xMidYMid meet">

<g transform="translate(0.000000,512.000000) scale(0.100000,-0.100000)"
fill="#000000" stroke="none">
<path d="M2263 4770 c-399 -39 -661 -157 -751 -339 l-27 -56 -3 -292 -3 -293
540 0 541 0 0 -85 0 -85 -798 0 c-534 0 -818 -4 -858 -11 -32 -6 -92 -26 -133
-45 -240 -111 -382 -353 -432 -734 -15 -118 -15 -446 0 -560 60 -440 212 -695
470 -786 62 -22 81 -24 293 -24 l227 0 3 333 c5 372 7 389 79 536 72 145 195
244 360 287 56 15 151 18 734 23 l670 6 80 28 c104 37 157 68 226 134 60 57
105 132 135 223 17 50 19 108 22 635 3 425 0 595 -8 635 -51 234 -289 391
-690 456 -112 19 -538 27 -677 14z m-231 -340 c5 0 26 -16 47 -36 106 -95 83
-257 -44 -320 -47 -22 -64 -26 -107 -21 -74 9 -124 46 -155 114 -20 44 -24 64
-19 101 16 116 126 195 236 170 19 -4 38 -8 42 -8z"/>
</g>
</svg>
